<svg width="824" height="178" viewBox="0 0 824 178" fill="none" xmlns="http://www.w3.org/2000/svg">
<g opacity="0.1">
<circle cx="126.5" cy="50" r="50" fill="#2F70FE"/>
<circle cx="126.5" cy="50" r="50" stroke="#2F70FE"/>
</g>
<path d="M123.5 46.5C123.5 48.7 121.7 50.5 119.5 50.5H107.5C105.3 50.5 103.5 48.7 103.5 46.5V34.5C103.5 32.3 105.3 30.5 107.5 30.5H119.5C121.7 30.5 123.5 32.3 123.5 34.5V46.5Z" stroke="black" stroke-miterlimit="10" stroke-linecap="round" stroke-linejoin="round"/>
<path d="M103.5 36.5H123.5" stroke="black" stroke-miterlimit="10" stroke-linecap="round" stroke-linejoin="round"/>
<path d="M129.5 46.5C129.5 48.7 131.3 50.5 133.5 50.5H145.5C147.7 50.5 149.5 48.7 149.5 46.5V34.5C149.5 32.3 147.7 30.5 145.5 30.5H133.5C131.3 30.5 129.5 32.3 129.5 34.5V46.5Z" stroke="black" stroke-miterlimit="10" stroke-linecap="round" stroke-linejoin="round"/>
<path d="M149.5 36.5H129.5" stroke="black" stroke-miterlimit="10" stroke-linecap="round" stroke-linejoin="round"/>
<path d="M123.5 72.5C123.5 74.7 121.7 76.5 119.5 76.5H107.5C105.3 76.5 103.5 74.7 103.5 72.5V60.5C103.5 58.3 105.3 56.5 107.5 56.5H119.5C121.7 56.5 123.5 58.3 123.5 60.5V72.5Z" stroke="black" stroke-miterlimit="10" stroke-linecap="round" stroke-linejoin="round"/>
<path d="M103.5 62.5H123.5" stroke="black" stroke-miterlimit="10" stroke-linecap="round" stroke-linejoin="round"/>
<path d="M129.5 72.5C129.5 74.7 131.3 76.5 133.5 76.5H145.5C147.7 76.5 149.5 74.7 149.5 72.5V60.5C149.5 58.3 147.7 56.5 145.5 56.5H133.5C131.3 56.5 129.5 58.3 129.5 60.5V72.5Z" stroke="black" stroke-miterlimit="10" stroke-linecap="round" stroke-linejoin="round"/>
<path d="M149.5 62.5H129.5" stroke="black" stroke-miterlimit="10" stroke-linecap="round" stroke-linejoin="round"/>
<path d="M11.3313 131.656V143H15.2993C17.3793 143 18.8033 141.704 18.8033 139.912C18.8033 138.648 18.0513 137.496 16.7553 137.176C17.7473 136.808 18.4513 135.944 18.4513 134.728C18.4513 132.936 17.1873 131.656 15.0273 131.656H11.3313ZM12.8993 136.616V133.032H14.7873C16.0833 133.032 16.8673 133.736 16.8673 134.808C16.8673 135.864 16.1153 136.616 14.8513 136.616H12.8993ZM12.8993 141.624V137.96H15.1393C16.5153 137.96 17.2033 138.728 17.2033 139.816C17.2033 140.92 16.3393 141.624 15.0753 141.624H12.8993ZM22.0104 138.36C22.0744 137.368 22.8424 136.392 24.1064 136.392C25.4664 136.392 26.1864 137.256 26.2184 138.36H22.0104ZM26.4424 140.36C26.1544 141.224 25.5304 141.912 24.2824 141.912C22.9864 141.912 21.9944 140.952 21.9624 139.576H27.7544C27.7704 139.48 27.7864 139.288 27.7864 139.096C27.7864 136.696 26.4584 135.064 24.0904 135.064C22.1544 135.064 20.4104 136.712 20.4104 139.128C20.4104 141.736 22.2184 143.24 24.2824 143.24C26.0744 143.24 27.3064 142.168 27.7384 140.808L26.4424 140.36ZM33.5463 140.936C33.5463 142.152 34.5543 143.24 36.1223 143.24C37.4983 143.24 38.2663 142.504 38.6023 141.96C38.6023 142.52 38.6503 142.808 38.6823 143H40.1543C40.1223 142.808 40.0583 142.408 40.0583 141.736V137.88C40.0583 136.376 39.1623 135.064 36.8583 135.064C35.1943 135.064 33.8663 136.088 33.7063 137.56L35.1463 137.896C35.2423 137 35.8343 136.344 36.8903 136.344C38.0583 136.344 38.5543 136.968 38.5543 137.72C38.5543 137.992 38.4263 138.232 37.9623 138.296L35.8823 138.6C34.5543 138.792 33.5463 139.56 33.5463 140.936ZM36.3303 141.976C35.5623 141.976 35.0823 141.432 35.0823 140.856C35.0823 140.168 35.5623 139.8 36.2023 139.704L38.5543 139.352V139.704C38.5543 141.384 37.5623 141.976 36.3303 141.976ZM48.2092 146.04V141.96C48.6253 142.648 49.5213 143.208 50.7053 143.208C52.9613 143.208 54.2893 141.432 54.2893 139.144C54.2893 136.904 53.0573 135.128 50.7533 135.128C49.5052 135.128 48.5933 135.736 48.1772 136.504V135.304H46.7212V146.04H48.2092ZM52.7533 139.144C52.7533 140.728 51.8733 141.864 50.4813 141.864C49.1053 141.864 48.1932 140.728 48.1932 139.144C48.1932 137.608 49.1053 136.456 50.4813 136.456C51.8893 136.456 52.7533 137.608 52.7533 139.144ZM55.8856 140.936C55.8856 142.152 56.8936 143.24 58.4616 143.24C59.8376 143.24 60.6056 142.504 60.9416 141.96C60.9416 142.52 60.9896 142.808 61.0216 143H62.4936C62.4616 142.808 62.3976 142.408 62.3976 141.736V137.88C62.3976 136.376 61.5016 135.064 59.1976 135.064C57.5336 135.064 56.2056 136.088 56.0456 137.56L57.4856 137.896C57.5816 137 58.1736 136.344 59.2296 136.344C60.3976 136.344 60.8936 136.968 60.8936 137.72C60.8936 137.992 60.7656 138.232 60.3016 138.296L58.2216 138.6C56.8936 138.792 55.8856 139.56 55.8856 140.936ZM58.6696 141.976C57.9016 141.976 57.4216 141.432 57.4216 140.856C57.4216 140.168 57.9016 139.8 58.5416 139.704L60.8936 139.352V139.704C60.8936 141.384 59.9016 141.976 58.6696 141.976ZM69.1726 135.224C69.0926 135.208 68.8846 135.176 68.6766 135.176C67.8926 135.176 66.9326 135.464 66.3726 136.648V135.304H64.9006V143H66.4046V139.144C66.4046 137.448 67.2526 136.776 68.5166 136.776C68.7246 136.776 68.9486 136.792 69.1726 136.824V135.224ZM73.3579 132.872H71.9819V134.12C71.9819 134.792 71.6299 135.304 70.7979 135.304H70.3819V136.664H71.8539V140.888C71.8539 142.28 72.6859 143.08 73.9979 143.08C74.5099 143.08 74.8939 142.984 75.0219 142.936V141.656C74.8939 141.688 74.6219 141.72 74.4299 141.72C73.6459 141.72 73.3579 141.368 73.3579 140.664V136.664H75.0219V135.304H73.3579V132.872ZM84.6454 141.896C83.3654 141.896 82.2454 140.936 82.2454 139.144C82.2454 137.368 83.3654 136.408 84.6454 136.408C85.9254 136.408 87.0454 137.368 87.0454 139.144C87.0454 140.936 85.9254 141.896 84.6454 141.896ZM84.6454 135.064C82.3414 135.064 80.7094 136.808 80.7094 139.144C80.7094 141.496 82.3414 143.24 84.6454 143.24C86.9494 143.24 88.5814 141.496 88.5814 139.144C88.5814 136.808 86.9494 135.064 84.6454 135.064ZM94.5376 136.664V135.304H92.6816V134.088C92.6816 133.032 93.3696 132.776 93.8976 132.776C94.2816 132.776 94.4736 132.84 94.5536 132.872V131.528C94.4896 131.48 94.1696 131.368 93.6576 131.368C92.2656 131.368 91.1296 132.296 91.1296 134.008V135.304H89.7056V136.664H91.1296V143H92.6816V136.664H94.5376ZM102.486 132.872H101.11V134.12C101.11 134.792 100.758 135.304 99.926 135.304H99.51V136.664H100.982V140.888C100.982 142.28 101.814 143.08 103.126 143.08C103.638 143.08 104.022 142.984 104.15 142.936V141.656C104.022 141.688 103.75 141.72 103.558 141.72C102.774 141.72 102.486 141.368 102.486 140.664V136.664H104.15V135.304H102.486V132.872ZM107.821 138.472C107.853 137.336 108.461 136.44 109.613 136.44C110.957 136.44 111.405 137.304 111.405 138.376V143H112.909V138.12C112.909 136.408 111.997 135.08 110.157 135.08C109.277 135.08 108.381 135.384 107.821 136.2V131.416H106.317V143H107.821V138.472ZM116.438 138.36C116.502 137.368 117.27 136.392 118.534 136.392C119.894 136.392 120.614 137.256 120.646 138.36H116.438ZM120.87 140.36C120.582 141.224 119.958 141.912 118.71 141.912C117.414 141.912 116.422 140.952 116.39 139.576H122.182C122.198 139.48 122.214 139.288 122.214 139.096C122.214 136.696 120.886 135.064 118.518 135.064C116.582 135.064 114.838 136.712 114.838 139.128C114.838 141.736 116.646 143.24 118.71 143.24C120.502 143.24 121.734 142.168 122.166 140.808L120.87 140.36ZM131.75 141.896C130.47 141.896 129.35 140.936 129.35 139.144C129.35 137.368 130.47 136.408 131.75 136.408C133.03 136.408 134.15 137.368 134.15 139.144C134.15 140.936 133.03 141.896 131.75 141.896ZM131.75 135.064C129.446 135.064 127.814 136.808 127.814 139.144C127.814 141.496 129.446 143.24 131.75 143.24C134.054 143.24 135.686 141.496 135.686 139.144C135.686 136.808 134.054 135.064 131.75 135.064ZM139.274 138.552C139.274 137.384 139.882 136.44 141.066 136.44C142.41 136.44 142.858 137.304 142.858 138.376V143H144.362V138.12C144.362 136.408 143.45 135.08 141.61 135.08C140.714 135.08 139.802 135.448 139.242 136.408V135.304H137.77V143H139.274V138.552ZM148.418 143V131.416H146.914V143H148.418ZM153.057 146.216L158.065 135.304H156.449L154.145 140.616L151.745 135.304H150.017L153.329 142.152L151.409 146.216H153.057ZM176.008 143H177.704L173.192 131.656H171.384L166.872 143H168.552L169.752 139.832H174.776L176.008 143ZM172.248 133.288L174.216 138.376H170.312L172.248 133.288ZM180.812 143V131.416H179.308V143H180.812ZM185.035 143V131.416H183.531V143H185.035ZM191.529 139.064V137.752H187.193V139.064H191.529ZM195.454 143V131.656H193.854V143H195.454ZM199.843 138.552C199.843 137.384 200.451 136.44 201.635 136.44C202.979 136.44 203.427 137.304 203.427 138.376V143H204.931V138.12C204.931 136.408 204.019 135.08 202.179 135.08C201.283 135.08 200.371 135.448 199.811 136.408V135.304H198.339V143H199.843V138.552ZM211.259 139.064V137.752H206.923V139.064H211.259ZM214.464 137.32C214.464 134.36 216.448 132.856 218.56 132.856C220.672 132.856 222.656 134.36 222.656 137.32C222.656 140.28 220.672 141.8 218.56 141.8C216.448 141.8 214.464 140.28 214.464 137.32ZM212.864 137.32C212.864 141.112 215.712 143.24 218.56 143.24C221.408 143.24 224.256 141.112 224.256 137.32C224.256 133.528 221.408 131.416 218.56 131.416C215.712 131.416 212.864 133.528 212.864 137.32ZM227.917 138.552C227.917 137.384 228.525 136.44 229.709 136.44C231.053 136.44 231.501 137.304 231.501 138.376V143H233.005V138.12C233.005 136.408 232.093 135.08 230.253 135.08C229.357 135.08 228.445 135.448 227.885 136.408V135.304H226.413V143H227.917V138.552ZM236.533 138.36C236.597 137.368 237.365 136.392 238.629 136.392C239.989 136.392 240.709 137.256 240.741 138.36H236.533ZM240.965 140.36C240.677 141.224 240.053 141.912 238.805 141.912C237.509 141.912 236.517 140.952 236.485 139.576H242.277C242.293 139.48 242.309 139.288 242.309 139.096C242.309 136.696 240.981 135.064 238.613 135.064C236.677 135.064 234.933 136.712 234.933 139.128C234.933 141.736 236.741 143.24 238.805 143.24C240.597 143.24 241.829 142.168 242.261 140.808L240.965 140.36ZM44.3402 173.04V168.96C44.7562 169.648 45.6522 170.208 46.8362 170.208C49.0922 170.208 50.4202 168.432 50.4202 166.144C50.4202 163.904 49.1882 162.128 46.8842 162.128C45.6362 162.128 44.7242 162.736 44.3082 163.504V162.304H42.8522V173.04H44.3402ZM48.8842 166.144C48.8842 167.728 48.0042 168.864 46.6122 168.864C45.2362 168.864 44.3242 167.728 44.3242 166.144C44.3242 164.608 45.2362 163.456 46.6122 163.456C48.0202 163.456 48.8842 164.608 48.8842 166.144ZM54.0006 170V158.416H52.4966V170H54.0006ZM56.2391 167.936C56.2391 169.152 57.2471 170.24 58.8151 170.24C60.1911 170.24 60.9591 169.504 61.2951 168.96C61.2951 169.52 61.3431 169.808 61.3751 170H62.8471C62.8151 169.808 62.7511 169.408 62.7511 168.736V164.88C62.7511 163.376 61.8551 162.064 59.5511 162.064C57.8871 162.064 56.5591 163.088 56.3991 164.56L57.8391 164.896C57.9351 164 58.5271 163.344 59.5831 163.344C60.7511 163.344 61.2471 163.968 61.2471 164.72C61.2471 164.992 61.1191 165.232 60.6551 165.296L58.5751 165.6C57.2471 165.792 56.2391 166.56 56.2391 167.936ZM59.0231 168.976C58.2551 168.976 57.7751 168.432 57.7751 167.856C57.7751 167.168 58.2551 166.8 58.8951 166.704L61.2471 166.352V166.704C61.2471 168.384 60.2551 168.976 59.0231 168.976ZM67.2701 159.872H65.8941V161.12C65.8941 161.792 65.5421 162.304 64.7101 162.304H64.2941V163.664H65.7661V167.888C65.7661 169.28 66.5981 170.08 67.9101 170.08C68.4221 170.08 68.8061 169.984 68.9341 169.936V168.656C68.8061 168.688 68.5341 168.72 68.3421 168.72C67.5581 168.72 67.2701 168.368 67.2701 167.664V163.664H68.9341V162.304H67.2701V159.872ZM74.9736 163.664V162.304H73.1176V161.088C73.1176 160.032 73.8056 159.776 74.3336 159.776C74.7176 159.776 74.9096 159.84 74.9896 159.872V158.528C74.9256 158.48 74.6056 158.368 74.0936 158.368C72.7016 158.368 71.5656 159.296 71.5656 161.008V162.304H70.1416V163.664H71.5656V170H73.1176V163.664H74.9736ZM79.7294 168.896C78.4494 168.896 77.3294 167.936 77.3294 166.144C77.3294 164.368 78.4494 163.408 79.7294 163.408C81.0094 163.408 82.1294 164.368 82.1294 166.144C82.1294 167.936 81.0094 168.896 79.7294 168.896ZM79.7294 162.064C77.4254 162.064 75.7934 163.808 75.7934 166.144C75.7934 168.496 77.4254 170.24 79.7294 170.24C82.0334 170.24 83.6654 168.496 83.6654 166.144C83.6654 163.808 82.0334 162.064 79.7294 162.064ZM90.0217 162.224C89.9417 162.208 89.7337 162.176 89.5257 162.176C88.7417 162.176 87.7817 162.464 87.2217 163.648V162.304H85.7497V170H87.2537V166.144C87.2537 164.448 88.1017 163.776 89.3657 163.776C89.5737 163.776 89.7977 163.792 90.0217 163.824V162.224ZM93.2727 170V165.36C93.2727 164.208 93.9927 163.408 95.0647 163.408C96.2167 163.408 96.6967 164.176 96.6967 165.168V170H98.2007V165.344C98.2007 164.24 98.9207 163.408 99.9767 163.408C101.113 163.408 101.609 164.16 101.609 165.168V170H103.097V165.008C103.097 162.992 101.785 162.08 100.441 162.08C99.4647 162.08 98.4727 162.432 97.8647 163.536C97.4487 162.544 96.5207 162.08 95.5607 162.08C94.6647 162.08 93.7047 162.48 93.2247 163.328V162.304H91.7847V170H93.2727ZM113.695 163.664V162.304H111.839V161.088C111.839 160.032 112.527 159.776 113.055 159.776C113.439 159.776 113.631 159.84 113.711 159.872V158.528C113.647 158.48 113.327 158.368 112.815 158.368C111.423 158.368 110.287 159.296 110.287 161.008V162.304H108.863V163.664H110.287V170H111.839V163.664H113.695ZM118.451 168.896C117.171 168.896 116.051 167.936 116.051 166.144C116.051 164.368 117.171 163.408 118.451 163.408C119.731 163.408 120.851 164.368 120.851 166.144C120.851 167.936 119.731 168.896 118.451 168.896ZM118.451 162.064C116.147 162.064 114.515 163.808 114.515 166.144C114.515 168.496 116.147 170.24 118.451 170.24C120.755 170.24 122.387 168.496 122.387 166.144C122.387 163.808 120.755 162.064 118.451 162.064ZM128.744 162.224C128.664 162.208 128.456 162.176 128.248 162.176C127.464 162.176 126.504 162.464 125.944 163.648V162.304H124.472V170H125.976V166.144C125.976 164.448 126.824 163.776 128.088 163.776C128.296 163.776 128.52 163.792 128.744 163.824V162.224ZM136.427 170V158.656H134.827V170H136.427ZM147.343 160.112V158.656H138.191V160.112H141.983V170H143.551V160.112H147.343ZM152.38 168C152.508 168.88 153.404 170.24 155.516 170.24C157.42 170.24 158.332 168.944 158.332 167.856C158.332 166.72 157.596 165.872 156.204 165.568L154.956 165.296C154.364 165.168 154.076 164.832 154.076 164.368C154.076 163.84 154.588 163.344 155.356 163.344C156.572 163.344 156.892 164.224 156.956 164.624L158.284 164.128C158.124 163.44 157.468 162.064 155.356 162.064C153.852 162.064 152.62 163.184 152.62 164.496C152.62 165.584 153.34 166.4 154.54 166.656L155.852 166.944C156.492 167.088 156.844 167.456 156.844 167.936C156.844 168.48 156.38 168.96 155.532 168.96C154.444 168.96 153.836 168.32 153.74 167.52L152.38 168ZM161.392 165.36C161.456 164.368 162.224 163.392 163.488 163.392C164.848 163.392 165.568 164.256 165.6 165.36H161.392ZM165.824 167.36C165.536 168.224 164.912 168.912 163.664 168.912C162.368 168.912 161.376 167.952 161.344 166.576H167.136C167.152 166.48 167.168 166.288 167.168 166.096C167.168 163.696 165.84 162.064 163.472 162.064C161.536 162.064 159.792 163.712 159.792 166.128C159.792 168.736 161.6 170.24 163.664 170.24C165.456 170.24 166.688 169.168 167.12 167.808L165.824 167.36ZM173.52 162.224C173.44 162.208 173.232 162.176 173.024 162.176C172.24 162.176 171.28 162.464 170.72 163.648V162.304H169.248V170H170.752V166.144C170.752 164.448 171.6 163.776 172.864 163.776C173.072 163.776 173.296 163.792 173.52 163.824V162.224ZM182.109 162.304H180.493L178.285 168.24L176.093 162.304H174.397L177.517 170H179.037L182.109 162.304ZM185.196 170V162.304H183.708V170H185.196ZM183.372 159.392C183.372 159.984 183.852 160.464 184.444 160.464C185.052 160.464 185.532 159.984 185.532 159.392C185.532 158.784 185.052 158.304 184.444 158.304C183.852 158.304 183.372 158.784 183.372 159.392ZM191.147 163.456C192.459 163.456 193.019 164.336 193.211 165.088L194.571 164.512C194.251 163.344 193.195 162.064 191.147 162.064C188.955 162.064 187.275 163.744 187.275 166.144C187.275 168.48 188.923 170.24 191.163 170.24C193.163 170.24 194.267 168.944 194.635 167.84L193.307 167.264C193.131 167.872 192.603 168.848 191.163 168.848C189.915 168.848 188.811 167.904 188.811 166.144C188.811 164.352 189.931 163.456 191.147 163.456ZM197.458 165.36C197.522 164.368 198.29 163.392 199.554 163.392C200.914 163.392 201.634 164.256 201.666 165.36H197.458ZM201.89 167.36C201.602 168.224 200.978 168.912 199.73 168.912C198.434 168.912 197.442 167.952 197.41 166.576H203.202C203.218 166.48 203.234 166.288 203.234 166.096C203.234 163.696 201.906 162.064 199.538 162.064C197.602 162.064 195.858 163.712 195.858 166.128C195.858 168.736 197.666 170.24 199.73 170.24C201.522 170.24 202.754 169.168 203.186 167.808L201.89 167.36ZM204.593 168C204.721 168.88 205.617 170.24 207.729 170.24C209.633 170.24 210.545 168.944 210.545 167.856C210.545 166.72 209.809 165.872 208.417 165.568L207.169 165.296C206.577 165.168 206.289 164.832 206.289 164.368C206.289 163.84 206.801 163.344 207.569 163.344C208.785 163.344 209.105 164.224 209.169 164.624L210.497 164.128C210.337 163.44 209.681 162.064 207.569 162.064C206.065 162.064 204.833 163.184 204.833 164.496C204.833 165.584 205.553 166.4 206.753 166.656L208.065 166.944C208.705 167.088 209.057 167.456 209.057 167.936C209.057 168.48 208.593 168.96 207.745 168.96C206.657 168.96 206.049 168.32 205.953 167.52L204.593 168Z" fill="#000C2D"/>
<g opacity="0.2">
<circle cx="427" cy="50" r="50" fill="#6DED02"/>
<circle cx="427" cy="50" r="50" stroke="#88BDDA"/>
</g>
<path d="M422 63C431.941 63 440 54.9411 440 45C440 35.0589 431.941 27 422 27C412.059 27 404 35.0589 404 45C404 54.9411 412.059 63 422 63Z" stroke="black" stroke-miterlimit="10" stroke-linecap="round" stroke-linejoin="round"/>
<path d="M434.8 57.7998L450 72.9998" stroke="black" stroke-miterlimit="10" stroke-linecap="round" stroke-linejoin="round"/>
<path d="M419 47.2002V50.6002L411 54.0002" stroke="black" stroke-miterlimit="10" stroke-linecap="round" stroke-linejoin="round"/>
<path d="M425 47.2002V50.6002L433 54.0002" stroke="black" stroke-miterlimit="10" stroke-linecap="round" stroke-linejoin="round"/>
<path d="M428.4 40.4004C428.4 44.6004 425.6 48.0004 422 48.0004C418.4 48.0004 415.6 44.6004 415.6 40.4004C415.6 36.2004 418.4 32.8004 422 32.8004C425.6 32.6004 428.4 36.0004 428.4 40.4004Z" stroke="black" stroke-miterlimit="10" stroke-linecap="round" stroke-linejoin="round"/>
<path d="M428.4 39.4C428.2 39.4 428 39.4 427.6 39.4C425.6 39.8 424.2 39 423 37C422.4 38.4 420.2 39.4 418.4 39.4C417.6 39.4 416.4 39.2 415.8 38.8" stroke="black" stroke-miterlimit="10" stroke-linecap="round" stroke-linejoin="round"/>
<path d="M331.366 143.24C333.974 143.24 335.766 141.72 336.374 139.592L334.982 139.08C334.518 140.632 333.302 141.8 331.366 141.8C329.302 141.8 327.334 140.28 327.334 137.32C327.334 134.36 329.302 132.856 331.366 132.856C333.222 132.856 334.47 133.816 334.902 135.528L336.358 135.016C335.782 132.824 333.958 131.416 331.366 131.416C328.55 131.416 325.734 133.528 325.734 137.32C325.734 141.112 328.438 143.24 331.366 143.24ZM341.437 141.896C340.157 141.896 339.037 140.936 339.037 139.144C339.037 137.368 340.157 136.408 341.437 136.408C342.717 136.408 343.837 137.368 343.837 139.144C343.837 140.936 342.717 141.896 341.437 141.896ZM341.437 135.064C339.133 135.064 337.501 136.808 337.501 139.144C337.501 141.496 339.133 143.24 341.437 143.24C343.741 143.24 345.373 141.496 345.373 139.144C345.373 136.808 343.741 135.064 341.437 135.064ZM348.945 143V138.36C348.945 137.208 349.665 136.408 350.737 136.408C351.889 136.408 352.369 137.176 352.369 138.168V143H353.873V138.344C353.873 137.24 354.593 136.408 355.649 136.408C356.785 136.408 357.281 137.16 357.281 138.168V143H358.769V138.008C358.769 135.992 357.457 135.08 356.113 135.08C355.137 135.08 354.145 135.432 353.537 136.536C353.121 135.544 352.193 135.08 351.233 135.08C350.337 135.08 349.377 135.48 348.897 136.328V135.304H347.457V143H348.945ZM362.312 138.36C362.376 137.368 363.144 136.392 364.408 136.392C365.768 136.392 366.488 137.256 366.52 138.36H362.312ZM366.744 140.36C366.456 141.224 365.832 141.912 364.584 141.912C363.288 141.912 362.296 140.952 362.264 139.576H368.056C368.072 139.48 368.088 139.288 368.088 139.096C368.088 136.696 366.76 135.064 364.392 135.064C362.456 135.064 360.712 136.712 360.712 139.128C360.712 141.736 362.52 143.24 364.584 143.24C366.376 143.24 367.608 142.168 368.04 140.808L366.744 140.36ZM377.56 136.456C378.872 136.456 379.432 137.336 379.624 138.088L380.984 137.512C380.664 136.344 379.608 135.064 377.56 135.064C375.368 135.064 373.688 136.744 373.688 139.144C373.688 141.48 375.336 143.24 377.576 143.24C379.576 143.24 380.68 141.944 381.048 140.84L379.72 140.264C379.544 140.872 379.016 141.848 377.576 141.848C376.328 141.848 375.224 140.904 375.224 139.144C375.224 137.352 376.344 136.456 377.56 136.456ZM384.476 143V131.416H382.972V143H384.476ZM390.491 141.896C389.211 141.896 388.091 140.936 388.091 139.144C388.091 137.368 389.211 136.408 390.491 136.408C391.771 136.408 392.891 137.368 392.891 139.144C392.891 140.936 391.771 141.896 390.491 141.896ZM390.491 135.064C388.187 135.064 386.555 136.808 386.555 139.144C386.555 141.496 388.187 143.24 390.491 143.24C392.795 143.24 394.427 141.496 394.427 139.144C394.427 136.808 392.795 135.064 390.491 135.064ZM395.791 141C395.919 141.88 396.815 143.24 398.927 143.24C400.831 143.24 401.743 141.944 401.743 140.856C401.743 139.72 401.007 138.872 399.615 138.568L398.367 138.296C397.775 138.168 397.487 137.832 397.487 137.368C397.487 136.84 397.999 136.344 398.767 136.344C399.983 136.344 400.303 137.224 400.367 137.624L401.695 137.128C401.535 136.44 400.879 135.064 398.767 135.064C397.263 135.064 396.031 136.184 396.031 137.496C396.031 138.584 396.751 139.4 397.951 139.656L399.263 139.944C399.903 140.088 400.255 140.456 400.255 140.936C400.255 141.48 399.791 141.96 398.943 141.96C397.855 141.96 397.247 141.32 397.151 140.52L395.791 141ZM404.804 138.36C404.868 137.368 405.636 136.392 406.9 136.392C408.26 136.392 408.98 137.256 409.012 138.36H404.804ZM409.236 140.36C408.948 141.224 408.324 141.912 407.076 141.912C405.78 141.912 404.788 140.952 404.756 139.576H410.548C410.564 139.48 410.58 139.288 410.58 139.096C410.58 136.696 409.252 135.064 406.884 135.064C404.948 135.064 403.204 136.712 403.204 139.128C403.204 141.736 405.012 143.24 407.076 143.24C408.868 143.24 410.1 142.168 410.532 140.808L409.236 140.36ZM416.931 135.224C416.851 135.208 416.643 135.176 416.435 135.176C415.651 135.176 414.691 135.464 414.131 136.648V135.304H412.659V143H414.163V139.144C414.163 137.448 415.011 136.776 416.275 136.776C416.483 136.776 416.707 136.792 416.931 136.824V135.224ZM424.87 132.872H423.494V134.12C423.494 134.792 423.142 135.304 422.31 135.304H421.894V136.664H423.366V140.888C423.366 142.28 424.198 143.08 425.51 143.08C426.022 143.08 426.406 142.984 426.534 142.936V141.656C426.406 141.688 426.134 141.72 425.942 141.72C425.158 141.72 424.87 141.368 424.87 140.664V136.664H426.534V135.304H424.87V132.872ZM431.92 141.896C430.64 141.896 429.52 140.936 429.52 139.144C429.52 137.368 430.64 136.408 431.92 136.408C433.2 136.408 434.32 137.368 434.32 139.144C434.32 140.936 433.2 141.896 431.92 141.896ZM431.92 135.064C429.616 135.064 427.984 136.808 427.984 139.144C427.984 141.496 429.616 143.24 431.92 143.24C434.224 143.24 435.856 141.496 435.856 139.144C435.856 136.808 434.224 135.064 431.92 135.064ZM445.092 131.368C443.7 131.368 442.564 132.296 442.564 134.008V135.304H441.14V136.664H442.564V143H444.116V136.664H447.716V143H449.204V135.304H444.116V134.072C444.116 133.016 444.804 132.776 445.332 132.776C445.716 132.776 445.908 132.84 445.988 132.872V131.528C445.924 131.48 445.604 131.368 445.092 131.368ZM447.38 132.36C447.38 132.952 447.86 133.432 448.452 133.432C449.06 133.432 449.54 132.952 449.54 132.36C449.54 131.752 449.06 131.272 448.452 131.272C447.86 131.272 447.38 131.752 447.38 132.36ZM453.42 138.552C453.42 137.384 454.028 136.44 455.212 136.44C456.556 136.44 457.004 137.304 457.004 138.376V143H458.508V138.12C458.508 136.408 457.596 135.08 455.756 135.08C454.86 135.08 453.948 135.448 453.388 136.408V135.304H451.916V143H453.42V138.552ZM461.957 139.128C461.957 137.544 462.853 136.424 464.229 136.424C465.605 136.424 466.437 137.512 466.437 139.096C466.437 140.68 465.589 141.88 464.213 141.88C462.773 141.88 461.957 140.712 461.957 139.128ZM466.453 141.96C466.453 142.424 466.501 142.824 466.533 143H467.989C467.973 142.872 467.909 142.312 467.909 141.576V131.416H466.421V136.392C466.165 135.768 465.429 135.096 464.069 135.096C461.893 135.096 460.421 136.952 460.421 139.128C460.421 141.416 461.813 143.208 464.069 143.208C465.269 143.208 466.085 142.568 466.453 141.832V141.96ZM472.115 143V135.304H470.627V143H472.115ZM470.291 132.392C470.291 132.984 470.771 133.464 471.363 133.464C471.971 133.464 472.451 132.984 472.451 132.392C472.451 131.784 471.971 131.304 471.363 131.304C470.771 131.304 470.291 131.784 470.291 132.392ZM476.338 138.552C476.338 137.384 476.946 136.44 478.13 136.44C479.474 136.44 479.922 137.304 479.922 138.376V143H481.426V138.12C481.426 136.408 480.514 135.08 478.674 135.08C477.778 135.08 476.866 135.448 476.306 136.408V135.304H474.834V143H476.338V138.552ZM483.418 143.416C483.61 145.064 485.05 146.28 486.97 146.28C489.866 146.28 490.826 144.376 490.826 142.424V135.304H489.338V136.376C488.954 135.608 488.154 135.16 486.97 135.16C484.858 135.16 483.434 136.824 483.434 138.904C483.434 141.08 484.922 142.632 486.97 142.632C488.122 142.632 488.954 142.072 489.322 141.368V142.472C489.322 144.136 488.586 144.968 486.97 144.968C485.802 144.968 484.986 144.152 484.874 143.08L483.418 143.416ZM487.194 141.368C485.834 141.368 484.97 140.408 484.97 138.904C484.97 137.416 485.866 136.44 487.194 136.44C488.49 136.44 489.386 137.416 489.386 138.904C489.386 140.392 488.49 141.368 487.194 141.368ZM499.468 146.216L504.476 135.304H502.86L500.556 140.616L498.156 135.304H496.428L499.74 142.152L497.82 146.216H499.468ZM509.067 141.896C507.787 141.896 506.667 140.936 506.667 139.144C506.667 137.368 507.787 136.408 509.067 136.408C510.347 136.408 511.467 137.368 511.467 139.144C511.467 140.936 510.347 141.896 509.067 141.896ZM509.067 135.064C506.763 135.064 505.131 136.808 505.131 139.144C505.131 141.496 506.763 143.24 509.067 143.24C511.371 143.24 513.003 141.496 513.003 139.144C513.003 136.808 511.371 135.064 509.067 135.064ZM520.081 142.072C520.081 142.392 520.113 142.824 520.145 143H521.585C521.553 142.728 521.505 142.184 521.505 141.576V135.304H520.001V139.944C520.001 141.112 519.393 141.912 518.177 141.912C516.913 141.912 516.433 140.984 516.433 139.928V135.304H514.929V140.152C514.929 141.896 516.017 143.24 517.809 143.24C518.705 143.24 519.665 142.872 520.081 142.072ZM528.503 135.224C528.423 135.208 528.215 135.176 528.007 135.176C527.223 135.176 526.263 135.464 525.703 136.648V135.304H524.231V143H525.735V139.144C525.735 137.448 526.583 136.776 527.847 136.776C528.055 136.776 528.279 136.792 528.503 136.824V135.224ZM377.355 165.552C377.355 164.384 377.963 163.44 379.147 163.44C380.491 163.44 380.939 164.304 380.939 165.376V170H382.443V165.12C382.443 163.408 381.531 162.08 379.691 162.08C378.795 162.08 377.883 162.448 377.323 163.408V162.304H375.851V170H377.355V165.552ZM385.972 165.36C386.036 164.368 386.804 163.392 388.068 163.392C389.428 163.392 390.148 164.256 390.18 165.36H385.972ZM390.404 167.36C390.116 168.224 389.492 168.912 388.244 168.912C386.948 168.912 385.956 167.952 385.924 166.576H391.716C391.732 166.48 391.748 166.288 391.748 166.096C391.748 163.696 390.42 162.064 388.052 162.064C386.116 162.064 384.372 163.712 384.372 166.128C384.372 168.736 386.18 170.24 388.244 170.24C390.036 170.24 391.268 169.168 391.7 167.808L390.404 167.36ZM392.629 170H394.421L396.373 167.168L398.357 170H400.165C399.701 169.376 397.797 166.704 397.333 166.08L400.069 162.304H398.293L396.437 165.008L394.549 162.304H392.725L395.493 166.08L392.629 170ZM403.863 159.872H402.487V161.12C402.487 161.792 402.135 162.304 401.303 162.304H400.887V163.664H402.359V167.888C402.359 169.28 403.191 170.08 404.503 170.08C405.015 170.08 405.399 169.984 405.527 169.936V168.656C405.399 168.688 405.127 168.72 404.935 168.72C404.151 168.72 403.863 168.368 403.863 167.664V163.664H405.527V162.304H403.863V159.872ZM415.086 163.456C416.398 163.456 416.958 164.336 417.15 165.088L418.51 164.512C418.19 163.344 417.134 162.064 415.086 162.064C412.894 162.064 411.214 163.744 411.214 166.144C411.214 168.48 412.862 170.24 415.102 170.24C417.102 170.24 418.206 168.944 418.574 167.84L417.246 167.264C417.07 167.872 416.542 168.848 415.102 168.848C413.854 168.848 412.75 167.904 412.75 166.144C412.75 164.352 413.87 163.456 415.086 163.456ZM425.493 169.072C425.493 169.392 425.525 169.824 425.557 170H426.997C426.965 169.728 426.917 169.184 426.917 168.576V162.304H425.413V166.944C425.413 168.112 424.805 168.912 423.589 168.912C422.325 168.912 421.845 167.984 421.845 166.928V162.304H420.341V167.152C420.341 168.896 421.429 170.24 423.221 170.24C424.117 170.24 425.077 169.872 425.493 169.072ZM428.923 168C429.051 168.88 429.947 170.24 432.059 170.24C433.963 170.24 434.875 168.944 434.875 167.856C434.875 166.72 434.139 165.872 432.747 165.568L431.499 165.296C430.907 165.168 430.619 164.832 430.619 164.368C430.619 163.84 431.131 163.344 431.899 163.344C433.115 163.344 433.435 164.224 433.499 164.624L434.827 164.128C434.667 163.44 434.011 162.064 431.899 162.064C430.395 162.064 429.163 163.184 429.163 164.496C429.163 165.584 429.883 166.4 431.083 166.656L432.395 166.944C433.035 167.088 433.387 167.456 433.387 167.936C433.387 168.48 432.923 168.96 432.075 168.96C430.987 168.96 430.379 168.32 430.283 167.52L428.923 168ZM439.053 159.872H437.677V161.12C437.677 161.792 437.325 162.304 436.493 162.304H436.077V163.664H437.549V167.888C437.549 169.28 438.381 170.08 439.693 170.08C440.206 170.08 440.589 169.984 440.717 169.936V168.656C440.589 168.688 440.318 168.72 440.125 168.72C439.341 168.72 439.053 168.368 439.053 167.664V163.664H440.717V162.304H439.053V159.872ZM446.103 168.896C444.823 168.896 443.703 167.936 443.703 166.144C443.703 164.368 444.823 163.408 446.103 163.408C447.383 163.408 448.503 164.368 448.503 166.144C448.503 167.936 447.383 168.896 446.103 168.896ZM446.103 162.064C443.799 162.064 442.167 163.808 442.167 166.144C442.167 168.496 443.799 170.24 446.103 170.24C448.407 170.24 450.039 168.496 450.039 166.144C450.039 163.808 448.407 162.064 446.103 162.064ZM453.611 170V165.36C453.611 164.208 454.331 163.408 455.403 163.408C456.555 163.408 457.035 164.176 457.035 165.168V170H458.539V165.344C458.539 164.24 459.259 163.408 460.315 163.408C461.451 163.408 461.947 164.16 461.947 165.168V170H463.435V165.008C463.435 162.992 462.123 162.08 460.779 162.08C459.803 162.08 458.811 162.432 458.203 163.536C457.787 162.544 456.859 162.08 455.899 162.08C455.003 162.08 454.043 162.48 453.563 163.328V162.304H452.123V170H453.611ZM466.978 165.36C467.042 164.368 467.81 163.392 469.074 163.392C470.434 163.392 471.154 164.256 471.186 165.36H466.978ZM471.41 167.36C471.122 168.224 470.498 168.912 469.25 168.912C467.954 168.912 466.962 167.952 466.93 166.576H472.722C472.738 166.48 472.754 166.288 472.754 166.096C472.754 163.696 471.426 162.064 469.058 162.064C467.122 162.064 465.378 163.712 465.378 166.128C465.378 168.736 467.186 170.24 469.25 170.24C471.042 170.24 472.274 169.168 472.706 167.808L471.41 167.36ZM479.106 162.224C479.026 162.208 478.818 162.176 478.61 162.176C477.826 162.176 476.866 162.464 476.306 163.648V162.304H474.834V170H476.338V166.144C476.338 164.448 477.186 163.776 478.45 163.776C478.658 163.776 478.882 163.792 479.106 163.824V162.224Z" fill="#000C2D"/>
<g opacity="0.1">
<circle cx="712.5" cy="50" r="50" fill="#2F70FE"/>
<circle cx="712.5" cy="50" r="50" stroke="#2F70FE"/>
</g>
<path d="M693.833 69.167H732.167" stroke="black" stroke-miterlimit="10" stroke-linecap="round" stroke-linejoin="round"/>
<path d="M700.5 60.8335H695.5V69.1668H700.5V60.8335Z" stroke="black" stroke-miterlimit="10" stroke-linecap="round" stroke-linejoin="round"/>
<path d="M710.5 52.5H705.5V69.1667H710.5V52.5Z" stroke="black" stroke-miterlimit="10" stroke-linecap="round" stroke-linejoin="round"/>
<path d="M720.5 55.8335H715.5V69.1668H720.5V55.8335Z" stroke="black" stroke-miterlimit="10" stroke-linecap="round" stroke-linejoin="round"/>
<path d="M730.5 44.167H725.5V69.167H730.5V44.167Z" stroke="black" stroke-miterlimit="10" stroke-linecap="round" stroke-linejoin="round"/>
<path d="M698 50.8333C698.92 50.8333 699.667 50.0871 699.667 49.1667C699.667 48.2462 698.92 47.5 698 47.5C697.08 47.5 696.333 48.2462 696.333 49.1667C696.333 50.0871 697.08 50.8333 698 50.8333Z" stroke="black" stroke-miterlimit="10" stroke-linecap="round" stroke-linejoin="round"/>
<path d="M708 42.5003C708.92 42.5003 709.667 41.7541 709.667 40.8337C709.667 39.9132 708.92 39.167 708 39.167C707.08 39.167 706.333 39.9132 706.333 40.8337C706.333 41.7541 707.08 42.5003 708 42.5003Z" stroke="black" stroke-miterlimit="10" stroke-linecap="round" stroke-linejoin="round"/>
<path d="M718 45.8333C718.92 45.8333 719.667 45.0871 719.667 44.1667C719.667 43.2462 718.92 42.5 718 42.5C717.08 42.5 716.333 43.2462 716.333 44.1667C716.333 45.0871 717.08 45.8333 718 45.8333Z" stroke="black" stroke-miterlimit="10" stroke-linecap="round" stroke-linejoin="round"/>
<path d="M728 34.1668C728.92 34.1668 729.667 33.4206 729.667 32.5002C729.667 31.5797 728.92 30.8335 728 30.8335C727.08 30.8335 726.333 31.5797 726.333 32.5002C726.333 33.4206 727.08 34.1668 728 34.1668Z" stroke="black" stroke-miterlimit="10" stroke-linecap="round" stroke-linejoin="round"/>
<path d="M699.333 48.1668L706.667 41.8335" stroke="black" stroke-miterlimit="10" stroke-linecap="round" stroke-linejoin="round"/>
<path d="M709.5 41.3335L716.5 43.6668" stroke="black" stroke-miterlimit="10" stroke-linejoin="round"/>
<path d="M726.833 33.8335L719.167 42.8335" stroke="black" stroke-miterlimit="10" stroke-linecap="round" stroke-linejoin="round"/>
<path d="M627.037 143V137.448H621.613V138.856H625.549C625.485 140.024 624.573 141.816 622.045 141.816C620.013 141.816 618.093 140.328 618.093 137.32C618.093 134.312 620.077 132.856 622.109 132.856C623.869 132.856 625.197 133.816 625.709 135.448L627.133 134.84C626.477 132.792 624.573 131.416 622.109 131.416C619.309 131.416 616.493 133.48 616.493 137.32C616.493 141.16 619.149 143.24 621.997 143.24C623.901 143.24 625.133 142.296 625.629 141.4L625.773 143H627.037ZM633.72 135.224C633.64 135.208 633.432 135.176 633.224 135.176C632.44 135.176 631.48 135.464 630.92 136.648V135.304H629.448V143H630.952V139.144C630.952 137.448 631.8 136.776 633.064 136.776C633.272 136.776 633.496 136.792 633.72 136.824V135.224ZM638.701 141.896C637.421 141.896 636.301 140.936 636.301 139.144C636.301 137.368 637.421 136.408 638.701 136.408C639.981 136.408 641.101 137.368 641.101 139.144C641.101 140.936 639.981 141.896 638.701 141.896ZM638.701 135.064C636.397 135.064 634.765 136.808 634.765 139.144C634.765 141.496 636.397 143.24 638.701 143.24C641.005 143.24 642.637 141.496 642.637 139.144C642.637 136.808 641.005 135.064 638.701 135.064ZM648.901 135.304L646.901 141.096L645.173 135.304H643.525L646.053 143H647.637L649.637 137.144L651.685 143H653.237L655.733 135.304H654.149L652.453 141.096L650.453 135.304H648.901ZM663.492 146.216L668.5 135.304H666.884L664.58 140.616L662.18 135.304H660.452L663.764 142.152L661.844 146.216H663.492ZM673.091 141.896C671.811 141.896 670.691 140.936 670.691 139.144C670.691 137.368 671.811 136.408 673.091 136.408C674.371 136.408 675.491 137.368 675.491 139.144C675.491 140.936 674.371 141.896 673.091 141.896ZM673.091 135.064C670.787 135.064 669.155 136.808 669.155 139.144C669.155 141.496 670.787 143.24 673.091 143.24C675.395 143.24 677.027 141.496 677.027 139.144C677.027 136.808 675.395 135.064 673.091 135.064ZM684.105 142.072C684.105 142.392 684.137 142.824 684.169 143H685.609C685.577 142.728 685.529 142.184 685.529 141.576V135.304H684.025V139.944C684.025 141.112 683.417 141.912 682.201 141.912C680.937 141.912 680.457 140.984 680.457 139.928V135.304H678.953V140.152C678.953 141.896 680.041 143.24 681.833 143.24C682.729 143.24 683.689 142.872 684.105 142.072ZM692.527 135.224C692.447 135.208 692.239 135.176 692.031 135.176C691.247 135.176 690.287 135.464 689.727 136.648V135.304H688.255V143H689.759V139.144C689.759 137.448 690.607 136.776 691.871 136.776C692.079 136.776 692.303 136.792 692.527 136.824V135.224ZM699.938 143V141.88C700.418 142.712 701.298 143.208 702.434 143.208C704.722 143.208 706.018 141.4 706.018 139.112C706.018 136.872 704.818 135.08 702.482 135.08C701.202 135.08 700.306 135.704 699.938 136.392V131.416H698.45V143H699.938ZM704.482 139.112C704.482 140.776 703.586 141.864 702.21 141.864C700.882 141.864 699.922 140.776 699.922 139.112C699.922 137.448 700.882 136.408 702.21 136.408C703.602 136.408 704.482 137.448 704.482 139.112ZM713.089 142.072C713.089 142.392 713.121 142.824 713.153 143H714.593C714.561 142.728 714.513 142.184 714.513 141.576V135.304H713.009V139.944C713.009 141.112 712.401 141.912 711.185 141.912C709.921 141.912 709.441 140.984 709.441 139.928V135.304H707.937V140.152C707.937 141.896 709.025 143.24 710.817 143.24C711.713 143.24 712.673 142.872 713.089 142.072ZM716.519 141C716.647 141.88 717.543 143.24 719.655 143.24C721.559 143.24 722.471 141.944 722.471 140.856C722.471 139.72 721.735 138.872 720.343 138.568L719.095 138.296C718.503 138.168 718.215 137.832 718.215 137.368C718.215 136.84 718.727 136.344 719.495 136.344C720.711 136.344 721.031 137.224 721.095 137.624L722.423 137.128C722.263 136.44 721.607 135.064 719.495 135.064C717.991 135.064 716.759 136.184 716.759 137.496C716.759 138.584 717.479 139.4 718.679 139.656L719.991 139.944C720.631 140.088 720.983 140.456 720.983 140.936C720.983 141.48 720.519 141.96 719.671 141.96C718.583 141.96 717.975 141.32 717.879 140.52L716.519 141ZM726.121 143V135.304H724.633V143H726.121ZM724.297 132.392C724.297 132.984 724.777 133.464 725.369 133.464C725.977 133.464 726.457 132.984 726.457 132.392C726.457 131.784 725.977 131.304 725.369 131.304C724.777 131.304 724.297 131.784 724.297 132.392ZM730.344 138.552C730.344 137.384 730.952 136.44 732.136 136.44C733.48 136.44 733.928 137.304 733.928 138.376V143H735.432V138.12C735.432 136.408 734.52 135.08 732.68 135.08C731.784 135.08 730.872 135.448 730.312 136.408V135.304H728.84V143H730.344V138.552ZM738.961 138.36C739.025 137.368 739.793 136.392 741.057 136.392C742.417 136.392 743.137 137.256 743.169 138.36H738.961ZM743.393 140.36C743.105 141.224 742.481 141.912 741.233 141.912C739.937 141.912 738.945 140.952 738.913 139.576H744.705C744.721 139.48 744.737 139.288 744.737 139.096C744.737 136.696 743.409 135.064 741.041 135.064C739.105 135.064 737.361 136.712 737.361 139.128C737.361 141.736 739.169 143.24 741.233 143.24C743.025 143.24 744.257 142.168 744.689 140.808L743.393 140.36ZM746.097 141C746.225 141.88 747.121 143.24 749.233 143.24C751.137 143.24 752.049 141.944 752.049 140.856C752.049 139.72 751.313 138.872 749.921 138.568L748.673 138.296C748.081 138.168 747.793 137.832 747.793 137.368C747.793 136.84 748.305 136.344 749.073 136.344C750.289 136.344 750.609 137.224 750.673 137.624L752.001 137.128C751.841 136.44 751.185 135.064 749.073 135.064C747.569 135.064 746.337 136.184 746.337 137.496C746.337 138.584 747.057 139.4 748.257 139.656L749.569 139.944C750.209 140.088 750.561 140.456 750.561 140.936C750.561 141.48 750.097 141.96 749.249 141.96C748.161 141.96 747.553 141.32 747.457 140.52L746.097 141ZM753.491 141C753.619 141.88 754.515 143.24 756.627 143.24C758.531 143.24 759.443 141.944 759.443 140.856C759.443 139.72 758.707 138.872 757.315 138.568L756.067 138.296C755.475 138.168 755.187 137.832 755.187 137.368C755.187 136.84 755.699 136.344 756.467 136.344C757.683 136.344 758.003 137.224 758.067 137.624L759.395 137.128C759.235 136.44 758.579 135.064 756.467 135.064C754.963 135.064 753.731 136.184 753.731 137.496C753.731 138.584 754.451 139.4 755.651 139.656L756.963 139.944C757.603 140.088 757.955 140.456 757.955 140.936C757.955 141.48 757.491 141.96 756.643 141.96C755.555 141.96 754.947 141.32 754.851 140.52L753.491 141ZM770.101 135.304L768.101 141.096L766.373 135.304H764.725L767.253 143H768.837L770.837 137.144L772.885 143H774.437L776.933 135.304H775.349L773.653 141.096L771.653 135.304H770.101ZM780.101 143V135.304H778.613V143H780.101ZM778.277 132.392C778.277 132.984 778.757 133.464 779.349 133.464C779.957 133.464 780.437 132.984 780.437 132.392C780.437 131.784 779.957 131.304 779.349 131.304C778.757 131.304 778.277 131.784 778.277 132.392ZM784.836 132.872H783.46V134.12C783.46 134.792 783.108 135.304 782.276 135.304H781.86V136.664H783.332V140.888C783.332 142.28 784.164 143.08 785.476 143.08C785.988 143.08 786.372 142.984 786.5 142.936V141.656C786.372 141.688 786.1 141.72 785.908 141.72C785.124 141.72 784.836 141.368 784.836 140.664V136.664H786.5V135.304H784.836V132.872ZM790.171 138.472C790.203 137.336 790.811 136.44 791.963 136.44C793.307 136.44 793.755 137.304 793.755 138.376V143H795.259V138.12C795.259 136.408 794.347 135.08 792.507 135.08C791.627 135.08 790.731 135.384 790.171 136.2V131.416H788.667V143H790.171V138.472ZM801.492 140.936C801.492 142.152 802.5 143.24 804.068 143.24C805.444 143.24 806.212 142.504 806.548 141.96C806.548 142.52 806.596 142.808 806.628 143H808.1C808.068 142.808 808.004 142.408 808.004 141.736V137.88C808.004 136.376 807.108 135.064 804.804 135.064C803.14 135.064 801.812 136.088 801.652 137.56L803.092 137.896C803.188 137 803.78 136.344 804.836 136.344C806.004 136.344 806.5 136.968 806.5 137.72C806.5 137.992 806.372 138.232 805.908 138.296L803.828 138.6C802.5 138.792 801.492 139.56 801.492 140.936ZM804.276 141.976C803.508 141.976 803.028 141.432 803.028 140.856C803.028 140.168 803.508 139.8 804.148 139.704L806.5 139.352V139.704C806.5 141.384 805.508 141.976 804.276 141.976ZM672.313 168C672.441 168.88 673.337 170.24 675.449 170.24C677.353 170.24 678.265 168.944 678.265 167.856C678.265 166.72 677.529 165.872 676.137 165.568L674.889 165.296C674.297 165.168 674.009 164.832 674.009 164.368C674.009 163.84 674.521 163.344 675.289 163.344C676.505 163.344 676.825 164.224 676.889 164.624L678.217 164.128C678.057 163.44 677.401 162.064 675.289 162.064C673.785 162.064 672.553 163.184 672.553 164.496C672.553 165.584 673.273 166.4 674.473 166.656L675.785 166.944C676.425 167.088 676.777 167.456 676.777 167.936C676.777 168.48 676.313 168.96 675.465 168.96C674.377 168.96 673.769 168.32 673.673 167.52L672.313 168ZM681.915 170V162.304H680.427V170H681.915ZM680.091 159.392C680.091 159.984 680.571 160.464 681.163 160.464C681.771 160.464 682.251 159.984 682.251 159.392C682.251 158.784 681.771 158.304 681.163 158.304C680.571 158.304 680.091 158.784 680.091 159.392ZM686.138 165.552C686.138 164.384 686.746 163.44 687.93 163.44C689.274 163.44 689.722 164.304 689.722 165.376V170H691.226V165.12C691.226 163.408 690.314 162.08 688.474 162.08C687.578 162.08 686.666 162.448 686.106 163.408V162.304H684.634V170H686.138V165.552ZM693.218 170.416C693.41 172.064 694.85 173.28 696.77 173.28C699.666 173.28 700.626 171.376 700.626 169.424V162.304H699.138V163.376C698.754 162.608 697.954 162.16 696.77 162.16C694.658 162.16 693.234 163.824 693.234 165.904C693.234 168.08 694.722 169.632 696.77 169.632C697.922 169.632 698.754 169.072 699.122 168.368V169.472C699.122 171.136 698.386 171.968 696.77 171.968C695.602 171.968 694.786 171.152 694.674 170.08L693.218 170.416ZM696.994 168.368C695.634 168.368 694.77 167.408 694.77 165.904C694.77 164.416 695.666 163.44 696.994 163.44C698.29 163.44 699.186 164.416 699.186 165.904C699.186 167.392 698.29 168.368 696.994 168.368ZM704.692 170V158.416H703.188V170H704.692ZM708.387 165.36C708.451 164.368 709.219 163.392 710.483 163.392C711.843 163.392 712.563 164.256 712.595 165.36H708.387ZM712.819 167.36C712.531 168.224 711.907 168.912 710.659 168.912C709.363 168.912 708.371 167.952 708.339 166.576H714.131C714.147 166.48 714.163 166.288 714.163 166.096C714.163 163.696 712.835 162.064 710.467 162.064C708.531 162.064 706.787 163.712 706.787 166.128C706.787 168.736 708.595 170.24 710.659 170.24C712.451 170.24 713.683 169.168 714.115 167.808L712.819 167.36ZM723.635 163.456C724.947 163.456 725.507 164.336 725.699 165.088L727.059 164.512C726.739 163.344 725.683 162.064 723.635 162.064C721.443 162.064 719.763 163.744 719.763 166.144C719.763 168.48 721.411 170.24 723.651 170.24C725.651 170.24 726.755 168.944 727.123 167.84L725.795 167.264C725.619 167.872 725.091 168.848 723.651 168.848C722.403 168.848 721.299 167.904 721.299 166.144C721.299 164.352 722.419 163.456 723.635 163.456ZM730.551 170V158.416H729.047V170H730.551ZM734.758 170V162.304H733.27V170H734.758ZM732.934 159.392C732.934 159.984 733.414 160.464 734.006 160.464C734.614 160.464 735.094 159.984 735.094 159.392C735.094 158.784 734.614 158.304 734.006 158.304C733.414 158.304 732.934 158.784 732.934 159.392ZM740.709 163.456C742.021 163.456 742.581 164.336 742.773 165.088L744.133 164.512C743.813 163.344 742.757 162.064 740.709 162.064C738.517 162.064 736.837 163.744 736.837 166.144C736.837 168.48 738.485 170.24 740.725 170.24C742.725 170.24 743.829 168.944 744.197 167.84L742.869 167.264C742.693 167.872 742.165 168.848 740.725 168.848C739.477 168.848 738.373 167.904 738.373 166.144C738.373 164.352 739.493 163.456 740.709 163.456ZM753.017 162.304H750.937L747.609 165.712V158.416H746.121V170H747.609V167.68L748.681 166.608L751.193 170H753.081L749.737 165.552L753.017 162.304Z" fill="#000C2D"/>
</svg>
