<svg width="120" height="98" viewBox="0 0 120 98" fill="none" xmlns="http://www.w3.org/2000/svg">
<g clip-path="url(#clip0)">
<path d="M0 48.1866L41.796 24.6356L0.615779 0L0 48.1866ZM7.69724 12.7051L27.2482 24.4032L7.38935 35.6364L7.69724 12.7051Z" fill="#6DED02"/>
<path d="M19.7041 86.7668L41.7182 98L40.3327 73.2095L19.7041 86.7668ZM21.4744 86.6893L39.486 74.8363L40.7175 96.528L21.4744 86.6893Z" fill="#6DED02"/>
<path d="M109.532 49.3484L120 36.5658L103.759 33.7769L109.532 49.3484ZM109.686 48.1864L104.683 34.5516L118.846 36.9531L109.686 48.1864Z" fill="#6DED02"/>
<path d="M62.6554 45.4751L61.8856 56.0111L61.0389 66.4696L70.5065 61.8988L79.8972 57.4055L71.2763 51.4403L62.6554 45.4751Z" fill="#6DED02"/>
<path d="M103.681 88.8578L107.145 92.7313L110.608 96.6048L112.225 91.7242L113.841 86.7661L108.761 87.7732L103.681 88.8578Z" fill="#6DED02"/>
</g>
<defs>
<clipPath id="clip0">
<rect width="120" height="98" fill="white"/>
</clipPath>
</defs>
</svg>
